HIERARCHY
ROOT Hips
{
	OFFSET 0.00 0.00 0.00
	CHANNELS 6 Xposition Yposition Zposition Xrotation Yrotation Zrotation
	JOINT Spine
	{
		OFFSET 0.00000 7.06766 0.00000
		CHANNELS 3 Xrotation Yrotation Zrotation
		JOINT Head
		{
			OFFSET 0.00000 15.03989 0.00000
			CHANNELS 3 Xrotation Yrotation Zrotation
			End Site
			{
				OFFSET 0.00000 4.52755 0.00000
			}
		}
		JOINT LeftShoulder
		{
			OFFSET 0.00000 10.53037 0.00000
			CHANNELS 3 Xrotation Yrotation Zrotation
			JOINT LeftArm
			{
				OFFSET 7.02886 0.00000 0.00000
				CHANNELS 3 Xrotation Yrotation Zrotation
				JOINT LeftForeArm
				{
					OFFSET 10.79770 0.00000 0.00000
					CHANNELS 3 Yrotation Zrotation Xrotation
					JOINT LeftHand
					{
						OFFSET 7.90744 0.00000 0.00000
						CHANNELS 3 Xrotation Yrotation Zrotation
						JOINT LeftHandThumb1
						{
							OFFSET 0.00000 0.00000 0.00000
							CHANNELS 3 Xrotation Zrotation Yrotation
							End Site
							{
								OFFSET 0.00000 0.00000 3.93700
							}
						}
						End Site
						{
							OFFSET 3.93700 0.00000 0.00000
						}
					}
				}
			}
		}
		JOINT RightShoulder
		{
			OFFSET 0.00000 10.53037 0.00000
			CHANNELS 3 Xrotation Yrotation Zrotation
			JOINT RightArm
			{
				OFFSET -7.02886 0.00000 0.00000
				CHANNELS 3 Xrotation Yrotation Zrotation
				JOINT RightForeArm
				{
					OFFSET -10.79770 0.00000 0.00000
					CHANNELS 3 Yrotation Zrotation Xrotation
					JOINT RightHand
					{
						OFFSET -7.90744 0.00000 0.00000
						CHANNELS 3 Xrotation Yrotation Zrotation
						JOINT RightHandThumb1
						{
							OFFSET 0.00000 0.00000 0.00000
							CHANNELS 3 Xrotation Zrotation Yrotation
							End Site
							{
								OFFSET 0.00000 0.00000 3.93700
							}
						}
						End Site
						{
							OFFSET -3.93700 0.00000 0.00000
						}
					}
				}
			}
		}
	}
	JOINT LeftUpLeg
	{
		OFFSET 4.01300 0.00000 0.00000
		CHANNELS 3 Xrotation Yrotation Zrotation
		JOINT LeftLeg
		{
			OFFSET 0.00000 -16.89976 0.00000
			CHANNELS 3 Xrotation Yrotation Zrotation
			JOINT LeftFoot
			{
				OFFSET 0.00000 -17.38918 0.00000
				CHANNELS 3 Xrotation Yrotation Zrotation
				JOINT LeftToeBase
				{
					OFFSET 0.00000 -1.27456 4.75673
					CHANNELS 3 Xrotation Yrotation Zrotation
					End Site
					{
						OFFSET 0.00000 0.00000 2.95275
					}
				}
			}
		}
	}
	JOINT RightUpLeg
	{
		OFFSET -4.01300 0.00000 0.00000
		CHANNELS 3 Xrotation Yrotation Zrotation
		JOINT RightLeg
		{
			OFFSET 0.00000 -16.89976 0.00000
			CHANNELS 3 Xrotation Yrotation Zrotation
			JOINT RightFoot
			{
				OFFSET 0.00000 -17.38918 0.00000
				CHANNELS 3 Xrotation Yrotation Zrotation
				JOINT RightToeBase
				{
					OFFSET 0.00000 -1.27456 4.75673
					CHANNELS 3 Xrotation Yrotation Zrotation
					End Site
					{
						OFFSET 0.00000 0.00000 2.95275
					}
				}
			}
		}
	}
}
MOTION
Frames: 11
Frame Time: 0.008333
 19.6398 35.5549 -21.8773 175.9405 -1.1087 177.1505 -14.2888 -0.8892 3.7068 9.0020 0.4899 -1.0878 -32.5878 5.3225 15.6035 3.8361 -7.8407 -5.0155 3.0585 0.0000 7.5926 0.7663 11.7700 -3.7514 33.1476 -0.0000 26.2537 2.6766 -12.3625 -9.9011 -38.8337 3.6483 7.0972 4.5873 -0.0000 36.8029 1.2657 -8.3870 8.6133 32.8623 0.0000 -24.3270 5.1686 5.1114 4.5665 -12.9662 0.0000 0.0000 -2.5568 21.2515 12.8939 -145.1603 0.0000 -0.0000 4.4785 -8.6906 1.7178 -2.9774 0.0000 0.0000 -15.8099 -27.8528 5.5825 22.9042 -0.0000 0.0000
 19.6364 35.5553 -21.8764 175.9395 -1.1208 177.1630 -14.2951 -0.8946 3.6922 9.0427 0.4844 -1.0921 -32.5947 5.3114 15.5979 3.8412 -7.8304 -5.0061 3.0493 0.0000 7.5905 0.7646 11.7659 -3.7446 33.1476 -0.0000 26.2537 2.6844 -12.3587 -9.8954 -38.8480 3.6404 7.0887 4.5820 -0.0000 36.8499 1.2551 -8.3590 8.5705 32.8623 0.0000 -24.3270 5.1557 5.0880 4.5506 -12.9455 0.0000 0.0000 -2.5662 21.2639 12.9233 -145.1426 -0.0000 0.0000 4.4688 -8.6980 1.6974 -2.9647 -0.0000 -0.0000 -15.8201 -27.8538 5.5696 22.8926 -0.0000 0.0000
 19.6328 35.5558 -21.8740 175.9401 -1.1429 177.1721 -14.2896 -0.9048 3.6776 9.0674 0.4839 -1.0912 -32.6164 5.2914 15.5846 3.8586 -7.8128 -4.9920 3.0312 0.0000 7.5978 0.7630 11.7891 -3.7293 33.1476 -0.0000 26.2537 2.6823 -12.3600 -9.8826 -38.8273 3.6419 7.0749 4.6044 -0.0000 36.8131 1.2647 -8.4027 8.5909 32.8623 0.0000 -24.3270 5.1340 5.0399 4.5390 -12.9048 -0.0000 -0.0000 -2.5840 21.2767 12.9572 -145.1232 0.0000 -0.0000 4.4598 -8.7161 1.6807 -2.9492 0.0000 0.0000 -15.8015 -27.8555 5.5947 22.8582 -0.0000 0.0000
 19.6305 35.5566 -21.8713 175.9379 -1.1618 177.1751 -14.2882 -0.9194 3.6624 9.0912 0.4781 -1.0788 -32.6295 5.2732 15.5804 3.8662 -7.7973 -4.9788 3.0294 0.0000 7.5829 0.7560 11.7593 -3.7048 33.1476 -0.0000 26.2537 2.6581 -12.3496 -9.8643 -38.7879 3.6483 7.0556 4.5885 -0.0000 36.8085 1.2552 -8.3710 8.5591 32.8623 0.0000 -24.3270 5.1150 4.9919 4.5346 -12.8791 -0.0000 -0.0000 -2.5815 21.3084 12.9885 -145.1216 -0.0000 0.0000 4.4391 -8.7018 1.6716 -2.9199 -0.0000 0.0000 -15.8214 -27.8856 5.5860 22.8690 -0.0000 0.0000
 19.6270 35.5575 -21.8683 175.9340 -1.1804 177.1829 -14.2871 -0.9169 3.6427 9.1243 0.5252 -1.0548 -32.6333 5.2594 15.5716 3.8380 -7.8009 -4.9784 3.0362 0.0000 7.5921 0.7461 11.7452 -3.6605 33.1476 -0.0000 26.2537 2.6603 -12.3619 -9.8401 -38.7925 3.6494 7.0490 4.5678 -0.0000 36.8767 1.2385 -8.3230 8.4943 32.8623 0.0000 -24.3270 5.0868 4.9453 4.5238 -12.8389 0.0000 0.0000 -2.5926 21.3264 13.0248 -145.0937 0.0000 0.0000 4.4141 -8.6898 1.6555 -2.8852 0.0000 0.0000 -15.8880 -27.9089 5.4736 22.9927 -0.0000 0.0000
 19.6228 35.5585 -21.8643 175.9258 -1.2025 177.1955 -14.2914 -0.9216 3.6105 9.1707 0.5039 -1.0387 -32.6352 5.2351 15.5749 3.8180 -7.7927 -4.9882 3.0418 0.0000 7.5817 0.7297 11.7234 -3.5870 33.1476 -0.0000 26.2537 2.6789 -12.3606 -9.8010 -38.7769 3.6491 7.0272 4.5894 -0.0000 36.8028 1.2494 -8.3921 8.4994 32.8623 0.0000 -24.3270 5.0535 4.8739 4.5070 -12.7958 -0.0000 -0.0000 -2.5876 21.3680 13.0794 -145.0901 -0.0000 0.0000 4.3770 -8.7014 1.6300 -2.8449 0.0000 0.0000 -15.8599 -27.9322 5.5345 22.7992 0.0000 0.0000
 19.6185 35.5602 -21.8598 175.9119 -1.2281 177.2082 -14.3059 -0.9265 3.5755 9.2457 0.5196 -1.0125 -32.6542 5.1928 15.5710 3.8359 -7.7713 -4.9948 3.0435 0.0000 7.5350 0.6987 11.6695 -3.4502 33.1476 -0.0000 26.2537 2.6792 -12.3507 -9.7680 -38.7604 3.6321 7.0132 4.5756 -0.0000 36.8489 1.2350 -8.3630 8.4309 32.8623 0.0000 -24.3270 5.0073 4.8180 4.4878 -12.7464 -0.0000 -0.0000 -2.5866 21.3943 13.1281 -145.1203 -0.0000 0.0000 4.3248 -8.7099 1.6043 -2.7854 -0.0000 -0.0000 -15.8680 -27.9514 5.5419 22.7652 -0.0000 0.0000
 19.6132 35.5615 -21.8555 175.9221 -1.2346 177.2236 -14.2833 -0.9241 3.5403 9.2914 0.5357 -0.9753 -32.6661 5.1663 15.5653 3.8382 -7.7491 -4.9962 3.0229 0.0000 7.5189 0.6635 11.5766 -3.3027 33.1476 -0.0000 26.2537 2.6443 -12.3010 -9.7318 -38.7314 3.5875 6.9750 4.6078 -0.0000 36.8059 1.2408 -8.3871 8.4462 32.8623 0.0000 -24.3270 4.9889 4.7641 4.4637 -12.6991 0.0000 0.0000 -2.5878 21.4427 13.1901 -145.1612 0.0000 -0.0000 4.2927 -8.6879 1.5738 -2.7208 -0.0000 -0.0000 -15.9425 -27.9476 5.4424 23.0520 0.0000 0.0000
 19.6075 35.5630 -21.8520 175.9331 -1.2613 177.2358 -14.2620 -0.9258 3.5025 9.3599 0.5629 -0.9449 -32.6474 5.1521 15.5543 3.8319 -7.7595 -5.0021 3.0183 0.0000 7.5084 0.6003 11.4857 -3.0120 33.1476 -0.0000 26.2537 2.6531 -12.2840 -9.6844 -38.7153 3.5671 6.9502 4.5942 -0.0000 36.7944 1.2279 -8.3475 8.3989 32.8623 0.0000 -24.3270 4.9708 4.6822 4.4434 -12.6490 0.0000 0.0000 -2.6065 21.5087 13.2373 -145.2084 -0.0000 0.0000 4.2673 -8.7043 1.5464 -2.6612 -0.0000 -0.0000 -15.9616 -27.9514 5.4334 22.9120 0.0000 -0.0000
 19.6018 35.5650 -21.8469 175.9437 -1.2750 177.2439 -14.2426 -0.9212 3.4694 9.4404 0.5469 -0.9136 -32.6358 5.1343 15.5377 3.8533 -7.7698 -5.0029 3.0011 0.0000 7.5457 0.5293 11.4403 -2.6669 33.1476 -0.0000 26.2537 2.6583 -12.2621 -9.6360 -38.7158 3.5450 6.9404 4.5925 -0.0000 36.7966 1.2205 -8.3514 8.3447 32.8623 0.0000 -24.3270 4.9440 4.6332 4.4249 -12.5903 0.0000 0.0000 -2.6239 21.5498 13.2994 -145.2008 0.0000 0.0000 4.2329 -8.7042 1.5219 -2.5900 0.0000 0.0000 -15.9769 -27.9676 5.4378 22.9325 -0.0000 0.0000
 19.5961 35.5677 -21.8420 175.9583 -1.2876 177.2524 -14.2174 -0.9037 3.4276 9.5132 0.5244 -0.8529 -32.6252 5.1077 15.5147 3.9134 -7.7894 -4.9964 2.9765 0.0000 7.6157 0.4394 11.3714 -2.2277 33.1476 -0.0000 26.2537 2.6430 -12.2318 -9.5719 -38.7076 3.5125 6.9071 4.5968 -0.0000 36.8599 1.2170 -8.3167 8.3555 32.8623 0.0000 -24.3270 4.9252 4.5514 4.4091 -12.5300 0.0000 0.0000 -2.6219 21.6133 13.3664 -145.1894 0.0000 0.0000 4.1943 -8.6908 1.4975 -2.5084 -0.0000 -0.0000 -15.9953 -28.0012 5.4417 22.8882 -0.0000 0.0000
